<svg width="31" height="30" viewBox="0 0 31 30" fill="none" xmlns="http://www.w3.org/2000/svg">
<path d="M21.1508 4.0623C22.6483 4.06663 24.0832 4.64423 25.1421 5.66896C26.201 6.69369 26.7978 8.08227 26.8023 9.53145V20.4686C26.7978 21.9177 26.201 23.3063 25.1421 24.331C24.0832 25.3558 22.6483 25.9334 21.1508 25.9377H9.84916C8.35168 25.9334 6.91681 25.3558 5.85792 24.331C4.79904 23.3063 4.20219 21.9177 4.19772 20.4686V9.53145C4.20219 8.08227 4.79904 6.69369 5.85792 5.66896C6.91681 4.64423 8.35168 4.06663 9.84916 4.0623H21.1508ZM21.1508 1.875H9.84916C5.49766 1.875 1.9375 5.32031 1.9375 9.53145V20.4686C1.9375 24.6797 5.49766 28.125 9.84916 28.125H21.1508C25.5023 28.125 29.0625 24.6797 29.0625 20.4686V9.53145C29.0625 5.32031 25.5023 1.875 21.1508 1.875Z" fill="#D8D2D2"/>
<path d="M22.8462 9.53125C22.5109 9.53125 22.1831 9.43503 21.9043 9.25476C21.6255 9.07448 21.4082 8.81825 21.2799 8.51847C21.1516 8.21868 21.118 7.88881 21.1834 7.57056C21.2488 7.25231 21.4103 6.95997 21.6474 6.73053C21.8845 6.50108 22.1866 6.34483 22.5154 6.28152C22.8443 6.21822 23.1851 6.25071 23.4949 6.37489C23.8047 6.49906 24.0695 6.70934 24.2558 6.97914C24.442 7.24894 24.5415 7.56614 24.5415 7.89063C24.5419 8.10621 24.4984 8.31975 24.4134 8.51901C24.3284 8.71827 24.2035 8.89932 24.046 9.05176C23.8885 9.20419 23.7014 9.32502 23.4955 9.40731C23.2896 9.48959 23.0689 9.53171 22.8462 9.53125ZM15.5 10.6246C16.3942 10.6246 17.2683 10.8812 18.0118 11.362C18.7552 11.8427 19.3347 12.526 19.6769 13.3255C20.0191 14.125 20.1086 15.0047 19.9342 15.8534C19.7597 16.7021 19.3291 17.4817 18.6969 18.0935C18.0646 18.7054 17.259 19.1221 16.382 19.2909C15.505 19.4597 14.596 19.3731 13.7699 19.042C12.9438 18.7108 12.2377 18.15 11.7409 17.4305C11.2441 16.711 10.979 15.8651 10.979 14.9998C10.9802 13.8398 11.457 12.7277 12.3046 11.9074C13.1521 11.0872 14.3013 10.6259 15.5 10.6246ZM15.5 8.43731C14.1588 8.43731 12.8477 8.82219 11.7325 9.54329C10.6174 10.2644 9.7482 11.2893 9.23494 12.4884C8.72169 13.6876 8.5874 15.0071 8.84905 16.2801C9.11071 17.5531 9.75656 18.7224 10.7049 19.6402C11.6533 20.558 12.8616 21.183 14.177 21.4362C15.4925 21.6894 16.856 21.5595 18.0951 21.0628C19.3342 20.5661 20.3933 19.7249 21.1384 18.6457C21.8835 17.5665 22.2813 16.2977 22.2813 14.9998C22.2813 13.2593 21.5668 11.5901 20.2951 10.3594C19.0233 9.12871 17.2985 8.43731 15.5 8.43731Z" fill="#D8D2D2"/>
</svg>
