<svg width="34" height="24" viewBox="0 0 34 24" fill="none" xmlns="http://www.w3.org/2000/svg">
<path d="M33.467 2.84375C32.2371 3.33272 30.9358 3.65486 29.6042 3.8C31.0036 3.05024 32.056 1.85911 32.564 0.450009C31.2409 1.15788 29.7958 1.65455 28.2906 1.91875C27.6568 1.31096 26.8945 0.827448 26.05 0.4976C25.2056 0.167751 24.2967 -0.00154208 23.3785 1.0584e-05C19.6612 1.0584e-05 16.6529 2.7125 16.6529 6.05624C16.6503 6.52134 16.7085 6.98506 16.8264 7.43749C14.1608 7.32315 11.5506 6.70098 9.16286 5.61078C6.7751 4.52058 4.66235 2.98635 2.95978 1.10626C2.36247 2.02758 2.04658 3.07878 2.04512 4.15C2.04512 6.24999 3.24257 8.10624 5.0507 9.19373C3.97944 9.17047 2.93012 8.91105 1.99184 8.43748V8.51248C1.99184 11.45 4.31433 13.8937 7.38821 14.45C6.81018 14.591 6.21452 14.6624 5.61629 14.6625C5.19181 14.6631 4.76829 14.6255 4.3519 14.55C5.20644 16.9562 7.69355 18.7062 10.6397 18.7562C8.24575 20.4443 5.30659 21.3567 2.2842 21.3499C1.74772 21.3492 1.21174 21.32 0.678955 21.2624C3.75364 23.0588 7.32772 24.009 10.9758 23.9999C23.3642 23.9999 30.1322 14.7687 30.1322 6.76249C30.1322 6.49999 30.1247 6.23749 30.111 5.98124C31.4247 5.12628 32.5611 4.06382 33.467 2.84375Z" fill="#D8D2D2"/>
</svg>
