<svg width="22" height="22" viewBox="0 0 22 22" fill="none" xmlns="http://www.w3.org/2000/svg">
<path d="M21.8586 4.85763C21.8586 2.27957 20.4362 0.205671 18.6786 0.205671C16.2978 0.0572899 13.8697 0 11.3884 0H10.6149C8.13957 0 5.70723 0.05729 3.32646 0.206244C1.57312 0.206244 0.150671 2.2916 0.150671 4.86966C0.0432355 6.90861 -0.00231712 8.94814 0.000261329 10.9877C-0.00403609 13.0272 0.044668 15.0686 0.146374 17.112C0.146374 19.69 1.56882 21.7811 3.32216 21.7811C5.82326 21.9358 8.38882 22.0046 10.9974 21.9988C13.6102 22.0103 16.1686 21.9377 18.6725 21.7811C20.4302 21.7811 21.8526 19.69 21.8526 17.112C21.9558 15.0667 22.003 13.0272 21.9987 10.9819C22.0085 8.94241 21.9618 6.90098 21.8586 4.85763ZM8.89592 16.6078V5.35032L15.1272 10.9762L8.89592 16.6078Z" fill="#E5E5E5"/>
</svg>
