<?xml version="1.0" encoding="utf-8"?>
<!-- Generator: Adobe Illustrator 23.0.2, SVG Export Plug-In . SVG Version: 6.00 Build 0)  -->
<svg version="1.1" id="Capa_1" xmlns="http://www.w3.org/2000/svg" xmlns:xlink="http://www.w3.org/1999/xlink" x="0px" y="0px"
	 viewBox="0 0 612 436.7" style="enable-background:new 0 0 612 436.7;" xml:space="preserve">
<style type="text/css">
	.st0{fill:#FFFFFF;}
</style>
<g>
	<g>
		<path class="st0" d="M269.9,200.6c-2.4,9.8-10.9,16.3-20.9,16.3c-13,0-21.8-10.3-21.8-21.5c0-10.6,8.2-21.4,21.7-21.4
			c13,0,19.9,10,21,16.5h-11.1c-1.2-3.1-4.3-7.2-10-7.2c-7.1,0-11.1,6.2-11.1,12.1c0,6.3,4.2,12.3,11.1,12.3c6.6,0,9.3-5.5,9.9-7
			h11.2V200.6z"/>
		<path class="st0" d="M274,174.7h13.1c7.3,0,10.1,0.9,12.7,3c3.4,2.7,5.1,7,5.1,11.3c0,4.7-2.5,11.7-10.3,13l11.2,14.1h-12.1
			l-9.6-13.4H284v13.4h-10V174.7z M284.1,195.5h3.7c6.2,0,6.9-3.9,6.9-5.9c0-3.7-2.7-5.6-6.8-5.6H284L284.1,195.5L284.1,195.5z"/>
		<path class="st0" d="M309.1,174.7h23v9.3h-12.8v6.4h12.5v9.3h-12.5v7.1h12.8v9.3h-23V174.7z"/>
		<path class="st0" d="M347.5,210.1l-2.2,6H334l16.6-41.3h8.3l16.4,41.3h-11.5l-2-6H347.5z M350.4,201.7h8.7l-4.2-14.1h-0.1h-0.1
			L350.4,201.7z"/>
		<path class="st0" d="M378.1,174.7h9.1l16,26l0.1-0.1l-0.4-25.9H413V216h-9.2L388,190.9v0.1l0.3,25.1h-10.1L378.1,174.7
			L378.1,174.7z"/>
		<path class="st0" d="M418.6,174.7h13.7c4.6,0,12.9,0,18.3,7.7c2.8,3.9,3.8,8.3,3.8,12.8c0,11.3-5.6,20.8-21.3,20.8h-14.5V174.7z
			 M429.2,206.8h4.5c7.9,0,10.1-5.5,10.1-11.3c0-2.3-0.5-5.3-2-7.7c-1.2-1.8-3.4-3.8-8-3.8h-4.6V206.8z"/>
		<path class="st0" d="M479.2,174c12.7,0,21.8,9.9,21.8,21.5c0,11.5-9.1,21.5-21.9,21.5c-13,0-21.7-10.3-21.7-20.9
			c0-2.7,0.4-5.8,1.6-8.8C461.2,181.7,467.6,174,479.2,174z M479.4,207.6c7.5,0,11.1-6.8,11.1-12.1c0-5.4-3.6-12.2-11.2-12.2
			c-7.3,0-11.3,6.3-11.3,12.1C468,201.7,472.3,207.6,479.4,207.6z"/>
	</g>
	<g>
		<path class="st0" d="M235.9,233.7h-8.2v-9.3h26.8v9.3h-8.1v32.1h-10.6v-32.1H235.9z"/>
		<path class="st0" d="M267.9,224.5v25c0,2.8,0.2,7.9,5.4,7.9c5.3,0,5.3-4.6,5.3-7.9v-25H289v25c0,6.9-1.5,10-4.1,12.7
			c-2.7,2.7-6.4,4.5-11.6,4.5c-3,0-8.5-0.7-11.9-4.4c-3.4-3.7-4.1-6.6-4.1-12.7v-25h10.6V224.5z"/>
		<path class="st0" d="M295,224.5h22.6v9.3h-12.5v7h12v9.3h-12v15.8H295V224.5z"/>
		<path class="st0" d="M332.3,224.5v25c0,2.8,0.2,7.9,5.4,7.9c5.3,0,5.3-4.6,5.3-7.9v-25h10.6v25c0,6.9-1.5,10-4.1,12.7
			c-2.7,2.7-6.4,4.5-11.6,4.5c-3,0-8.5-0.7-11.9-4.4c-3.4-3.7-4.1-6.6-4.1-12.7v-25h10.4V224.5z"/>
		<path class="st0" d="M364.5,233.7h-8.2v-9.3h26.8v9.3H375v32.1h-10.6v-32.1H364.5z"/>
		<path class="st0" d="M396.4,224.5v25c0,2.8,0.2,7.9,5.4,7.9c5.3,0,5.3-4.6,5.3-7.9v-25h10.6v25c0,6.9-1.5,10-4.1,12.7
			c-2.7,2.7-6.4,4.5-11.6,4.5c-3,0-8.5-0.7-11.9-4.4c-3.4-3.7-4.1-6.6-4.1-12.7v-25h10.4V224.5z"/>
		<path class="st0" d="M423.6,224.5h13.1c7.3,0,10.1,0.9,12.7,3c3.4,2.7,5.1,7,5.1,11.3c0,4.7-2.5,11.7-10.3,13l11.2,14.1h-12.1
			l-9.6-13.4h-0.1v13.4h-10.1L423.6,224.5L423.6,224.5z M433.7,245.3h3.7c6.2,0,6.9-3.9,6.9-5.9c0-3.7-2.7-5.6-6.8-5.6h-3.9
			L433.7,245.3L433.7,245.3z"/>
		<path class="st0" d="M479.2,223.7c12.7,0,21.8,9.9,21.8,21.5c0,11.5-9.1,21.5-21.9,21.5c-13,0-21.7-10.3-21.7-20.9
			c0-2.7,0.4-5.8,1.6-8.8C461.2,231.5,467.6,223.7,479.2,223.7z M479.4,257.3c7.5,0,11.1-6.8,11.1-12.1c0-5.4-3.6-12.2-11.2-12.2
			c-7.3,0-11.3,6.3-11.3,12.1C468,251.4,472.3,257.3,479.4,257.3z"/>
	</g>
</g>
<path class="st0" d="M357.7,271c-17,27.3-47.3,45.5-81.8,45.5c-53.2,0-96.2-43.1-96.2-96.2s43.1-96.3,96.2-96.3
	c34.5,0,64.8,18.2,81.8,45.5l58.5-36.1c-29.1-46.9-81-78.1-140.3-78.1c-91.1,0-165,73.9-165,165s73.9,165,165,165
	c59.3,0,111.2-31.2,140.3-78.1L357.7,271z"/>
</svg>
