<?xml version="1.0" encoding="utf-8"?>
<!-- Generator: Adobe Illustrator 25.4.1, SVG Export Plug-In . SVG Version: 6.00 Build 0)  -->
<svg version="1.1" id="Capa_1" xmlns="http://www.w3.org/2000/svg" xmlns:xlink="http://www.w3.org/1999/xlink" x="0px" y="0px"
	 viewBox="0 0 792 338.2" style="enable-background:new 0 0 792 338.2;" xml:space="preserve">
<style type="text/css">
	.st0{clip-path:url(#SVGID_00000147207754101662411090000004471700534645627574_);fill:#B9B888;}
	.st1{clip-path:url(#SVGID_00000147207754101662411090000004471700534645627574_);fill:#0B4A90;}
</style>
<g>
	<defs>
		<rect id="SVGID_1_" x="42.7" y="26" width="674.3" height="284.1"/>
	</defs>
	<clipPath id="SVGID_00000166666304760356837080000006394263918322555575_">
		<use xlink:href="#SVGID_1_"  style="overflow:visible;"/>
	</clipPath>
	<path style="clip-path:url(#SVGID_00000166666304760356837080000006394263918322555575_);fill:#B9B888;" d="M323,140.7
		c0,0-27.8-32.8,3.5-61.6c0,0,13.9-16.9,56.6-27.8l15.9,14.9l23.8-24.8L358.2,26l7.4,10.4c0,0,2,6.9-5.5,6.9
		c-7.4,0-68.5,3.5-89.9,42.7c0,0-14.4,41.9,39.7,57.1c0,0,3.6,1.1,11.9,0.5C322,143.7,325,143.2,323,140.7"/>
	<path style="clip-path:url(#SVGID_00000166666304760356837080000006394263918322555575_);fill:#0B4A90;" d="M448.5,46.8
		c0,0,16.4,34.2-17.2,64.1c0,0-14.7,19.5-51.6,22.4l-10.6-13.9l-27.4,21.8l58.5,22.6l-6.6-9.7c0,0-2.5-7.3,2.7-7.9
		c5.2-0.6,83.3,3.6,96.7-48.3c0,0,9.7-45.2-39.8-53.3C453.1,44.6,447.1,42.7,448.5,46.8"/>
	<path style="clip-path:url(#SVGID_00000166666304760356837080000006394263918322555575_);fill:#0B4A90;" d="M112.4,239.5
		c-0.5,3.1-0.7,6.2-0.7,9.4c0,3.4,0.3,7.2,0.7,11.4c-4.4,1.9-9.4,3.4-14.9,4.6c-5.5,1.2-10.8,1.7-15.9,1.7c-7.8,0-14.6-1.7-20.5-5.1
		c-5.9-3.4-10.4-8.1-13.6-14.2c-3.2-6-4.8-12.9-4.8-20.6c0-7.9,1.7-15,5.1-21.2c3.4-6.2,8.1-11,14.2-14.4c6.1-3.4,13.8-5.2,23.1-5.2
		c3.8,0,7.3,0.3,10.5,0.8c3.2,0.6,7.4,1.7,12.5,3.3l4.2,1.3c-0.9,3.9-1.6,9.3-2.1,16.3h-3.1v-3.6c0-3.6-0.3-5.7-0.8-6.3
		c-1-1.2-3.6-2.6-7.9-4.4c-4.3-1.7-9.1-2.6-14.6-2.6c-9.7,0-17.1,2.9-22.3,8.7c-5.6,6.3-8.4,14.7-8.4,25.1c0,10,2.5,18.4,7.6,25.2
		c5.9,8.1,14.1,12.1,24.3,12.1c5.4,0,11.1-1.3,17.4-3.9c0.2-3.1,0.3-6.4,0.3-9.9c0-4.5-0.1-7.1-0.2-7.8c-0.1-0.7-0.4-1.1-0.7-1.3
		c-0.4-0.2-2.1-0.5-5.2-0.7l-5.8-0.6v-3.5c7.6,0.4,13.2,0.6,16.9,0.6c3.2,0,5.9-0.2,8.2-0.6v2.8L112.4,239.5z"/>
	<path style="clip-path:url(#SVGID_00000166666304760356837080000006394263918322555575_);fill:#0B4A90;" d="M129.8,261.4
		c2.4,0.1,4.8,0.2,7.2,0.2c4.7,0,8.4-0.1,11.1-0.4c1.9-0.2,3.8-0.6,5.8-1.2l2.3-9.8h2.4c-0.6,5.3-1.1,10.2-1.5,14.8
		c-2.3,0.4-5.3,0.6-9.2,0.6l-17.9-0.3c-2.4,0-6.2,0.2-11.2,0.5v-2.2c2-1,3.2-2,3.6-3.1c0.4-1.1,0.5-5.5,0.5-13.2v-23
		c0-8.3-0.2-13-0.5-14c-0.4-1-1.4-1.4-3.1-1.4H115V206c6,0.2,9.9,0.3,11.9,0.3c2.6,0,6.1-0.1,10.6-0.3v2.6h-4.7
		c-1.3,0-2.2,0.4-2.5,1.3c-0.4,0.9-0.5,4.4-0.5,10.6v26.6l0.1,11.8L129.8,261.4z"/>
	<path style="clip-path:url(#SVGID_00000166666304760356837080000006394263918322555575_);fill:#0B4A90;" d="M157.5,235.7
		c0-9.2,2.7-16.5,8-22.1c5.3-5.6,12.4-8.4,21.2-8.4c8.7,0,15.5,2.6,20.4,7.8c4.9,5.2,7.4,12.1,7.4,20.7c0,9.3-2.9,17-8.6,23.3
		c-5.7,6.2-12.9,9.4-21.6,9.4c-5.4,0-10.1-1.2-14.1-3.7c-3.9-2.5-7-6-9.3-10.7C158.6,247.2,157.5,241.8,157.5,235.7 M165.1,232.3
		c0,6.3,1,11.8,2.9,16.4c1.9,4.7,4.6,8.2,7.8,10.5c3.3,2.3,7,3.5,11.2,3.5c3.9,0,7.3-1,10.2-3c2.9-2,5.2-4.9,6.9-8.9
		c1.7-3.9,2.5-8.7,2.5-14.3c0-5.9-0.9-11-2.8-15.1c-1.8-4.2-4.4-7.3-7.6-9.5c-3.2-2.1-7-3.2-11.4-3.2c-4,0-7.5,0.9-10.4,2.8
		c-2.9,1.9-5.2,4.6-6.8,8.2C165.9,223.4,165.1,227.6,165.1,232.3"/>
	<path style="clip-path:url(#SVGID_00000166666304760356837080000006394263918322555575_);fill:#0B4A90;" d="M240.8,231.8
		c5.4,0.4,9.3,1.8,11.6,4.2c2.4,2.4,3.6,5.7,3.6,9.9c0,5.3-2,9.9-6,13.8c-4,3.9-9.1,5.8-15.2,5.8l-3-0.1c-2.5-0.1-4.6-0.2-6.3-0.2
		c-1.3,0-2.8,0.1-4.6,0.2l-3.1,0.1v-1.9c1.6-0.8,2.5-1.5,2.8-1.9c0.3-0.4,0.5-1.2,0.5-2.2c0.2-3.3,0.3-7.1,0.3-11.3v-26
		c0-7-0.2-10.9-0.7-11.8c-0.5-1.1-1.9-1.6-4-1.6H214V206h3.1l3.5,0.1c1.8,0.1,3.2,0.1,4.3,0.1c1.6,0,4.7-0.1,9.4-0.3l5.5-0.2
		c4.3,0,7.5,0.8,9.7,2.5c2.7,2.1,4,5.1,4,9c0,3.2-0.9,6-2.8,8.4C248.6,228.2,245.4,230.2,240.8,231.8 M228.3,230.7
		c1.2,0.1,2.4,0.1,3.5,0.1c5,0,8.6-1,10.7-2.9c2.2-2,3.2-4.8,3.2-8.5c0-3.2-0.9-5.7-2.7-7.4c-1.8-1.7-4.7-2.6-8.6-2.6
		c-1.8,0-3.7,0.2-5.7,0.5c-0.2,3.4-0.3,8.5-0.3,15.4V230.7z M228.3,261.3c2.3,0.4,4.3,0.6,5.8,0.6c4.4,0,7.9-1.3,10.3-3.9
		c2.4-2.6,3.7-6.2,3.7-10.7c0-3-0.5-5.5-1.6-7.5c-1.1-2-2.6-3.4-4.5-4.3c-1.9-0.9-5-1.4-9.3-1.4c-1.3,0-2.7,0-4.3,0.1V249l0,5.3
		c0.1,1.9,0.1,3.3,0.1,4.3C228.5,259.4,228.4,260.3,228.3,261.3"/>
	<path style="clip-path:url(#SVGID_00000166666304760356837080000006394263918322555575_);fill:#0B4A90;" d="M293.9,245.4h-21.7
		l-2.5,6.7c-1.7,4.5-2.5,7.2-2.5,8.2c0,0.6,0.2,1.1,0.5,1.4c0.3,0.3,1.1,0.5,2.4,0.7l3.6,0.5v2.6c-2.4-0.2-5.1-0.3-8.1-0.3
		c-3.6,0-6.8,0.1-9.5,0.3v-2.6l1.1,0c1.8,0,2.9-0.3,3.4-0.6c0.5-0.3,1.1-1.2,1.6-2.6c1.8-4,3.6-8.3,5.4-13l10.3-26
		c2.8-6.9,4.6-11.9,5.6-15h2.6l19,49.2c1.3,3.3,2.1,5.4,2.6,6c0.4,0.7,0.9,1.2,1.5,1.5c0.6,0.3,1.8,0.5,3.7,0.6v2.6
		c-3.3-0.2-6.4-0.3-9.3-0.3c-2.8,0-6.4,0.1-11,0.3v-2.6l3.7-0.2c1.3-0.1,2.1-0.3,2.4-0.5c0.4-0.3,0.6-0.7,0.6-1.2
		c0-0.5-0.4-1.8-1.1-3.9L293.9,245.4z M273.6,242h18.9l-9.5-25.1L273.6,242z"/>
	<path style="clip-path:url(#SVGID_00000166666304760356837080000006394263918322555575_);fill:#0B4A90;" d="M326.7,261.4
		c2.5,0.1,4.8,0.2,7.2,0.2c4.7,0,8.4-0.1,11-0.4c1.9-0.2,3.8-0.6,5.7-1.2l2.3-9.8h2.4c-0.6,5.3-1.1,10.2-1.5,14.8
		c-2.3,0.4-5.3,0.6-9.2,0.6l-17.9-0.3c-2.4,0-6.1,0.2-11.2,0.5v-2.2c2-1,3.2-2,3.6-3.1c0.4-1.1,0.5-5.5,0.5-13.2v-23
		c0-8.3-0.2-13-0.5-14c-0.4-1-1.4-1.4-3.1-1.4h-4.1V206c6,0.2,9.9,0.3,11.9,0.3c2.6,0,6.1-0.1,10.6-0.3v2.6h-4.7
		c-1.3,0-2.2,0.4-2.5,1.3c-0.4,0.9-0.5,4.4-0.5,10.6v26.6l0.1,11.8L326.7,261.4z"/>
	<path style="clip-path:url(#SVGID_00000166666304760356837080000006394263918322555575_);fill:#0B4A90;" d="M386,228.1V247
		c0,7.5,0.4,11.9,1.1,13.2c0.7,1.3,2.6,1.9,5.5,1.9h3.5v3.5c-6.3-0.3-11.3-0.4-15-0.4c-3.8,0-8.6,0.1-14.6,0.4v-3.5h4
		c2.8,0,4.6-0.6,5.2-1.8c0.6-1.2,1-5.6,1-13.3v-41.6c0-7.5-0.4-11.8-1.1-13c-0.7-1.2-2.6-1.8-5.5-1.8h-3.6v-3.5
		c5.5,0.3,10.4,0.4,14.8,0.4l28.5-0.6c3,0,5.8,0.2,8.4,0.5c-1.1,3.9-1.6,9.5-1.7,16.7h-3.2c-0.2-3.8-0.6-7.2-1.2-10.2
		c-4.5-1.3-9.1-2-13.7-2c-4,0-8,0.2-11.8,0.7c-0.4,4.8-0.6,9.1-0.6,13v17.5c2,0.1,3.9,0.2,5.8,0.2c5,0,9.3-0.2,13-0.4
		c1.2-0.1,2.1-0.4,2.6-0.9c0.4-0.5,0.8-2,1.1-4.3l0.5-4.2h3.1c-0.3,6.7-0.4,11-0.4,12.9l0,13h-3.3v-4.2c0-3.4-0.6-5.4-1.7-6.2
		c-1.2-0.7-5.6-1.1-13.3-1.1C391.4,227.9,388.9,228,386,228.1"/>
	<path style="clip-path:url(#SVGID_00000166666304760356837080000006394263918322555575_);fill:#0B4A90;" d="M454.8,245.4H433
		l-2.5,6.7c-1.7,4.5-2.5,7.2-2.5,8.2c0,0.6,0.2,1.1,0.5,1.4c0.3,0.3,1.1,0.5,2.4,0.7l3.6,0.5v2.6c-2.4-0.2-5.1-0.3-8.1-0.3
		c-3.6,0-6.8,0.1-9.5,0.3v-2.6l1.1,0c1.8,0,2.9-0.3,3.4-0.6c0.5-0.3,1.1-1.2,1.6-2.6c1.8-4,3.6-8.3,5.4-13l10.3-26
		c2.8-6.9,4.6-11.9,5.6-15h2.6l19,49.2c1.3,3.3,2.1,5.4,2.6,6c0.4,0.7,0.9,1.2,1.5,1.5c0.5,0.3,1.8,0.5,3.7,0.6v2.6
		c-3.3-0.2-6.4-0.3-9.3-0.3c-2.8,0-6.4,0.1-11,0.3v-2.6l3.7-0.2c1.3-0.1,2.1-0.3,2.4-0.5c0.4-0.3,0.6-0.7,0.6-1.2
		c0-0.5-0.4-1.8-1.1-3.9L454.8,245.4z M434.4,242h18.9l-9.5-25.1L434.4,242z"/>
	<path style="clip-path:url(#SVGID_00000166666304760356837080000006394263918322555575_);fill:#0B4A90;" d="M473.1,262.8h2.4
		c2.3,0,3.7-0.6,4.2-1.9c0.5-1.2,0.7-7.2,0.7-18v-14.2c0-11.1-0.2-17.3-0.6-18.4c-0.4-1.1-1.6-1.7-3.6-1.7h-3V206
		c4.2,0.2,8.3,0.3,12.3,0.3c3.4,0,6.5-0.1,9.2-0.3v2.6h-2.9c-1.8,0-2.9,0.2-3.4,0.7c-0.4,0.5-0.7,1.7-0.8,3.6
		c-0.1,3-0.2,8.3-0.2,15.9v14.4c0,10.8,0.2,16.8,0.6,17.9c0.4,1.1,1.8,1.6,4.1,1.6h2.5v2.6c-3.1-0.2-6.4-0.3-10.1-0.3
		c-4.2,0-8.1,0.1-11.5,0.3V262.8z"/>
	<path style="clip-path:url(#SVGID_00000166666304760356837080000006394263918322555575_);fill:#0B4A90;" d="M522,235.3
		c2.5,3.9,5.5,8.5,9.1,13.7l7.2,10.4c1.3,1.8,2.1,2.8,2.6,3.1c0.4,0.3,0.9,0.4,1.3,0.4h1v2.6c-2.1-0.2-3.9-0.3-5.5-0.3
		c-1.4,0-2.9,0.1-4.5,0.3l-13.3-20c-2.5-3.7-5.1-7.3-8-10.8l0.4-1.4c1.5,0.1,2.5,0.2,3.2,0.2c4.2,0,7.5-1.2,9.8-3.6
		c2.4-2.4,3.5-5.6,3.5-9.6c0-3.6-1-6.4-3-8.4c-2-2-4.9-3-8.7-3c-2.6,0-5.3,0.5-7.9,1.6c-0.3,4.4-0.4,9.2-0.4,14.2v20.2
		c0,9.8,0.2,15.3,0.6,16.3c0.4,1.1,1.8,1.6,4.1,1.6h2.9v2.6c-4.2-0.2-7.6-0.3-10.3-0.3c-2.2,0-6,0.1-11.7,0.3v-2.6h2.8
		c2.2,0,3.4-0.5,3.8-1.6c0.4-1,0.6-6.5,0.6-16.5v-20.1c0-8.6-0.2-13.5-0.7-14.5c-0.5-1-2-1.5-4.5-1.5h-2V206
		c4.7,0.2,8.2,0.3,10.7,0.3c1.7,0,4-0.1,7.1-0.2c3.6-0.1,6.2-0.2,7.8-0.2c4.3,0,7.6,0.5,9.9,1.5c2.2,1,3.9,2.5,5.1,4.4
		c1.2,1.9,1.7,4.2,1.7,6.9c0,3.9-1.3,7.4-3.8,10.4C530.5,232.1,526.8,234.2,522,235.3"/>
	<path style="clip-path:url(#SVGID_00000166666304760356837080000006394263918322555575_);fill:#0B4A90;" d="M551.8,215.4v28.9
		c0,6.6,0.1,11.2,0.3,13.7c0.2,2,0.5,3.2,0.9,3.6c0.4,0.4,1.6,0.7,3.6,0.9l2.4,0.2v2.6c-2.7-0.2-5.2-0.3-7.4-0.3
		c-1.5,0-5,0.1-10.5,0.3v-2.6h2.7c1.6,0,2.7-0.2,3.2-0.7c0.5-0.5,0.8-1.5,0.9-3c0.3-3.1,0.4-7.2,0.4-12.5v-20.8
		c0-3.9,0-7.8-0.1-11.6c-0.1-1.6-0.2-2.7-0.6-3.3c-0.3-0.6-0.8-1.1-1.5-1.6c-0.7-0.5-1.6-0.7-2.7-0.7h-2.3V206
		c3.2,0.2,5.6,0.3,7.3,0.3c1.8,0,3.8-0.1,5.9-0.3c2.5,3.4,4.8,6.7,7,9.8c2.2,3.2,4.5,6.4,6.8,9.6L581,243c4.6,6.3,8,10.7,10,13.1
		v-26.8c0-11.2-0.2-17.4-0.5-18.4c-0.4-1-1.8-1.7-4.3-2l-2.8-0.3V206c4,0.2,7.2,0.3,9.4,0.3c2.3,0,5.3-0.1,9-0.3v2.6h-2.9
		c-2.3,0-3.7,0.9-4,2.6c-0.2,1.1-0.3,7.2-0.3,18.3v18.8c0,5.1,0.2,11.1,0.6,18.2c-3.4-0.6-5.4-1-5.9-1.3c-0.5-0.3-1.1-0.7-1.6-1.3
		c-2.8-3.4-5.7-7.2-8.8-11.4L551.8,215.4z"/>
	<path style="clip-path:url(#SVGID_00000166666304760356837080000006394263918322555575_);fill:#0B4A90;" d="M616,237.1v10.2l0,5.9
		c0,3.7,0,6.4,0.1,8.1c3.7,0.3,7.6,0.5,11.8,0.5c2.8,0,5.2-0.1,7.1-0.4c1.2-0.2,2.5-0.5,3.9-1.1c0.6-2.4,1.3-5.5,1.9-9.2h2.5
		c-0.7,6.1-1,10.2-1,12.2l0.1,1.9c-2.9,0.3-5.7,0.4-8.5,0.4l-5.9-0.1c-6.5-0.2-11.3-0.3-14.4-0.3c-2.9,0-6.8,0.1-11.7,0.3v-2.6h1.2
		c2.2,0,3.5-0.2,4.1-0.7c0.6-0.5,0.9-1.6,1.1-3.3c0.2-1.7,0.3-5.6,0.3-11.6v-22.9c0-3.8-0.1-6.8-0.2-9.2c-0.2-2.4-0.3-3.8-0.5-4.3
		c-0.2-0.5-0.5-0.8-0.8-1.1c-0.4-0.2-1.4-0.5-3.2-0.7l-2.9-0.3V206h4.1l4,0.2c2.2,0.1,3.9,0.1,5.1,0.1l14.4-0.2l6.8-0.1
		c2.3,0,4.7,0.1,7.1,0.3c-0.9,3.3-1.5,7.6-1.6,12.9h-2.6c0-3.1-0.1-5.6-0.4-7.6c-3-1.2-6.6-1.8-10.9-1.8c-3.4,0-7,0.2-10.8,0.5
		c0,2.6,0,5.2-0.1,7.8l-0.1,6.4v8.5c2.5,0.2,4.7,0.3,6.6,0.3c6,0,9.3-0.2,10.1-0.7c0.8-0.5,1.2-1.9,1.2-4.3v-2.7h2.5
		c-0.2,4.2-0.3,7.6-0.3,10.1c0,2.6,0.1,5.8,0.3,9.4h-2.5v-2.4c0-2.7-0.5-4.3-1.4-4.9c-0.9-0.6-4.2-0.9-9.9-0.9
		C620.5,236.8,618.3,236.9,616,237.1"/>
	<path style="clip-path:url(#SVGID_00000166666304760356837080000006394263918322555575_);fill:#0B4A90;" d="M677.7,208.8
		c-0.7,2.9-1.1,6.7-1.1,11.5H674V217c0-2.2-0.3-3.6-0.8-4.4c-0.5-0.8-1.9-1.6-4.1-2.5c-2.2-0.9-4.6-1.3-7-1.3c-4,0-7.2,1.1-9.5,3.4
		c-2.3,2.3-3.4,5.1-3.4,8.7c0,2.2,0.5,4.1,1.4,5.7c0.9,1.6,2.2,2.8,3.8,3.5c1.6,0.7,5,1.3,10.1,1.9c5.2,0.6,8.6,1.3,10.5,2.2
		c1.8,0.9,3.3,2.4,4.4,4.4c1.1,2,1.6,4.4,1.6,7.2c0,5.6-2.1,10.4-6.3,14.5c-4.2,4-9.8,6.1-16.8,6.1c-2.4,0-4.8-0.3-7.3-0.8
		c-2.4-0.5-4.9-1.3-7.4-2.4c0.5-3.3,0.7-7.6,0.6-12.9h2.6v2.1c0,2.7,0.1,4.4,0.4,5c0.3,0.6,0.8,1.3,1.8,2c1.4,1.1,3,1.9,4.9,2.5
		c1.9,0.6,4,0.9,6.2,0.9c4.7,0,8.4-1.2,11-3.7c2.6-2.5,3.9-5.6,3.9-9.4c0-2.2-0.4-4.1-1.3-5.7c-0.9-1.5-2.1-2.7-3.7-3.4
		c-1.6-0.7-4.5-1.3-8.8-1.7c-5.7-0.5-9.5-1.3-11.5-2.3c-2-1-3.6-2.6-4.8-4.7c-1.2-2.2-1.7-4.8-1.7-8c0-5.4,1.8-9.9,5.3-13.3
		c3.5-3.5,8.4-5.2,14.7-5.2c2.5,0,5,0.3,7.5,0.9C672.6,206.7,675.1,207.6,677.7,208.8"/>
	<path style="clip-path:url(#SVGID_00000166666304760356837080000006394263918322555575_);fill:#0B4A90;" d="M713.7,208.8
		c-0.7,2.9-1.1,6.7-1.1,11.5H710V217c0-2.2-0.3-3.6-0.8-4.4c-0.5-0.8-1.9-1.6-4.1-2.5c-2.2-0.9-4.6-1.3-7-1.3c-4,0-7.2,1.1-9.5,3.4
		c-2.3,2.3-3.4,5.1-3.4,8.7c0,2.2,0.5,4.1,1.4,5.7c0.9,1.6,2.2,2.8,3.8,3.5c1.6,0.7,5,1.3,10.1,1.9c5.2,0.6,8.7,1.3,10.5,2.2
		c1.8,0.9,3.3,2.4,4.4,4.4c1.1,2,1.6,4.4,1.6,7.2c0,5.6-2.1,10.4-6.3,14.5c-4.2,4-9.8,6.1-16.8,6.1c-2.4,0-4.8-0.3-7.3-0.8
		c-2.4-0.5-4.9-1.3-7.4-2.4c0.5-3.3,0.7-7.6,0.6-12.9h2.6v2.1c0,2.7,0.1,4.4,0.4,5c0.2,0.6,0.8,1.3,1.8,2c1.4,1.1,3,1.9,4.9,2.5
		c1.9,0.6,4,0.9,6.2,0.9c4.7,0,8.4-1.2,11-3.7c2.6-2.5,3.9-5.6,3.9-9.4c0-2.2-0.4-4.1-1.3-5.7c-0.9-1.5-2.1-2.7-3.7-3.4
		c-1.6-0.7-4.5-1.3-8.8-1.7c-5.7-0.5-9.5-1.3-11.5-2.3c-2-1-3.6-2.6-4.8-4.7c-1.1-2.2-1.7-4.8-1.7-8c0-5.4,1.8-9.9,5.3-13.3
		c3.5-3.5,8.4-5.2,14.7-5.2c2.5,0,5,0.3,7.5,0.9C708.6,206.7,711.2,207.6,713.7,208.8"/>
	
		<rect x="178.2" y="294.2" style="clip-path:url(#SVGID_00000166666304760356837080000006394263918322555575_);fill:#B9B888;" width="4.9" height="15.9"/>
	<polygon style="clip-path:url(#SVGID_00000166666304760356837080000006394263918322555575_);fill:#B9B888;" points="216.8,294.2 
		221.4,294.2 227.4,303 227.4,294.2 232,294.2 232,310.1 227.4,310.1 221.4,301.3 221.4,310.1 216.8,310.1 	"/>
	
		<rect x="265.5" y="294.2" style="clip-path:url(#SVGID_00000166666304760356837080000006394263918322555575_);fill:#B9B888;" width="4.9" height="15.9"/>
	<polygon style="clip-path:url(#SVGID_00000166666304760356837080000006394263918322555575_);fill:#B9B888;" points="303,294.2 
		317.9,294.2 317.9,298.1 312.9,298.1 312.9,310.1 308,310.1 308,298.1 303,298.1 	"/>
	
		<rect x="350.4" y="294.2" style="clip-path:url(#SVGID_00000166666304760356837080000006394263918322555575_);fill:#B9B888;" width="4.9" height="15.9"/>
	<path style="clip-path:url(#SVGID_00000166666304760356837080000006394263918322555575_);fill:#B9B888;" d="M398.7,307.5h-5.6
		l-0.8,2.6h-5l6-15.9h5.4l6,15.9h-5.2L398.7,307.5z M397.7,304l-1.8-5.7l-1.7,5.7H397.7z"/>
	<polygon style="clip-path:url(#SVGID_00000166666304760356837080000006394263918322555575_);fill:#B9B888;" points="433.7,294.2 
		448.6,294.2 448.6,298.1 443.6,298.1 443.6,310.1 438.7,310.1 438.7,298.1 433.7,298.1 	"/>
	
		<rect x="481.1" y="294.2" style="clip-path:url(#SVGID_00000166666304760356837080000006394263918322555575_);fill:#B9B888;" width="4.9" height="15.9"/>
	<polygon style="clip-path:url(#SVGID_00000166666304760356837080000006394263918322555575_);fill:#B9B888;" points="518.1,294.2 
		523.2,294.2 526.8,305.6 530.4,294.2 535.4,294.2 529.4,310.1 524.1,310.1 	"/>
	<polygon style="clip-path:url(#SVGID_00000166666304760356837080000006394263918322555575_);fill:#B9B888;" points="567,294.2 
		580.2,294.2 580.2,297.6 572,297.6 572,300.1 579.6,300.1 579.6,303.3 572,303.3 572,306.5 580.5,306.5 580.5,310.1 567,310.1 	"/>
</g>
</svg>
